<svg xmlns="http://www.w3.org/2000/svg" xmlns:xlink="http://www.w3.org/1999/xlink" width="500" zoomAndPan="magnify" viewBox="0 0 375 374.999991" height="500" preserveAspectRatio="xMidYMid meet" version="1.0"><defs><g/></defs><g fill="#fb5315" fill-opacity="1"><g transform="translate(80.955288, 211.87645)"><g><path d="M 1.09375 -52.796875 C 1.09375 -53.972656 1.421875 -54.742188 2.078125 -55.109375 C 2.742188 -55.472656 3.554688 -55.65625 4.515625 -55.65625 C 5.609375 -55.65625 6.796875 -55.546875 8.078125 -55.328125 C 9.367188 -55.109375 10.5625 -55 11.65625 -55 C 12.539062 -55 13.382812 -55 14.1875 -55 C 15 -55 15.769531 -55 16.5 -55 C 21.269531 -55 25.375 -55.125 28.8125 -55.375 C 32.257812 -55.632812 35.125 -55.726562 37.40625 -55.65625 C 39.820312 -55.582031 41.597656 -55.363281 42.734375 -55 C 43.867188 -54.632812 44.878906 -53.390625 45.765625 -51.265625 C 46.859375 -48.617188 47.828125 -46.175781 48.671875 -43.9375 C 49.515625 -41.707031 49.914062 -39.894531 49.875 -38.5 C 49.84375 -37.101562 49.019531 -36.40625 47.40625 -36.40625 C 46.457031 -36.40625 45.613281 -36.804688 44.875 -37.609375 C 44.144531 -38.421875 43.320312 -39.410156 42.40625 -40.578125 C 41.488281 -41.753906 40.347656 -42.96875 38.984375 -44.21875 C 37.628906 -45.46875 35.851562 -46.550781 33.65625 -47.46875 C 31.457031 -48.382812 28.671875 -48.953125 25.296875 -49.171875 C 24.492188 -49.242188 23.832031 -49.019531 23.3125 -48.5 C 22.800781 -47.988281 22.546875 -47.332031 22.546875 -46.53125 L 22.546875 -33.21875 C 22.546875 -31.3125 23.460938 -30.46875 25.296875 -30.6875 C 27.796875 -31.050781 29.648438 -31.582031 30.859375 -32.28125 C 32.066406 -32.976562 32.941406 -33.710938 33.484375 -34.484375 C 34.035156 -35.253906 34.566406 -35.914062 35.078125 -36.46875 C 35.597656 -37.019531 36.375 -37.296875 37.40625 -37.296875 C 38.9375 -37.296875 39.847656 -36.722656 40.140625 -35.578125 C 40.441406 -34.441406 40.5 -33.101562 40.3125 -31.5625 C 40.132812 -30.03125 40.046875 -28.710938 40.046875 -27.609375 C 40.046875 -26.503906 40.132812 -25.203125 40.3125 -23.703125 C 40.5 -22.203125 40.441406 -20.863281 40.140625 -19.6875 C 39.847656 -18.519531 38.9375 -17.9375 37.40625 -17.9375 C 36.375 -17.9375 35.597656 -18.191406 35.078125 -18.703125 C 34.566406 -19.210938 34.035156 -19.851562 33.484375 -20.625 C 32.941406 -21.394531 32.066406 -22.128906 30.859375 -22.828125 C 29.648438 -23.523438 27.796875 -24.019531 25.296875 -24.3125 C 23.460938 -24.53125 22.546875 -23.6875 22.546875 -21.78125 L 22.546875 -8.03125 C 22.546875 -7.21875 22.800781 -6.554688 23.3125 -6.046875 C 23.832031 -5.535156 24.492188 -5.316406 25.296875 -5.390625 C 28.890625 -5.609375 31.859375 -6.335938 34.203125 -7.578125 C 36.554688 -8.828125 38.484375 -10.296875 39.984375 -11.984375 C 41.484375 -13.671875 42.726562 -15.320312 43.71875 -16.9375 C 44.707031 -18.550781 45.640625 -19.90625 46.515625 -21 C 47.398438 -22.101562 48.394531 -22.65625 49.5 -22.65625 C 51.257812 -22.65625 52.046875 -21.679688 51.859375 -19.734375 C 51.679688 -17.796875 50.894531 -14.332031 49.5 -9.34375 C 48.988281 -7.363281 48.546875 -5.625 48.171875 -4.125 C 47.804688 -2.625 47.257812 -1.429688 46.53125 -0.546875 C 45.800781 0.328125 44.628906 0.726562 43.015625 0.65625 C 36.484375 0.363281 30.851562 0.179688 26.125 0.109375 C 21.394531 0.0351562 17.269531 0 13.75 0 C 12.644531 0 11.34375 0.109375 9.84375 0.328125 C 8.34375 0.546875 6.929688 0.65625 5.609375 0.65625 C 4.359375 0.65625 3.3125 0.472656 2.46875 0.109375 C 1.625 -0.253906 1.203125 -0.988281 1.203125 -2.09375 C 1.203125 -2.894531 1.382812 -3.5 1.75 -3.90625 C 2.125 -4.3125 2.566406 -4.820312 3.078125 -5.4375 C 3.585938 -6.0625 4.007812 -7.035156 4.34375 -8.359375 C 4.675781 -9.679688 4.84375 -11.625 4.84375 -14.1875 L 4.84375 -40.8125 C 4.84375 -43.300781 4.65625 -45.1875 4.28125 -46.46875 C 3.914062 -47.757812 3.476562 -48.710938 2.96875 -49.328125 C 2.457031 -49.953125 2.015625 -50.484375 1.640625 -50.921875 C 1.273438 -51.367188 1.09375 -51.992188 1.09375 -52.796875 Z M 1.09375 -52.796875 "/></g></g></g><g fill="#fb5315" fill-opacity="1"><g transform="translate(134.741514, 211.87645)"><g><path d="M 1.09375 -41.359375 C 1.09375 -42.460938 1.457031 -43.195312 2.1875 -43.5625 C 2.925781 -43.925781 3.957031 -44.289062 5.28125 -44.65625 C 6.601562 -45.019531 8.144531 -45.753906 9.90625 -46.859375 C 12.25 -48.328125 13.929688 -49.738281 14.953125 -51.09375 C 15.984375 -52.445312 16.789062 -53.546875 17.375 -54.390625 C 17.96875 -55.234375 18.738281 -55.65625 19.6875 -55.65625 C 21.007812 -55.65625 21.796875 -54.992188 22.046875 -53.671875 C 22.304688 -52.359375 22.4375 -50.894531 22.4375 -49.28125 L 22.4375 -45.203125 C 22.4375 -44.398438 22.84375 -44 23.65625 -44 L 25.40625 -44 C 27.238281 -44 28.15625 -43.082031 28.15625 -41.25 C 28.15625 -39.34375 27.238281 -38.390625 25.40625 -38.390625 L 23.65625 -38.390625 C 22.84375 -38.390625 22.4375 -37.988281 22.4375 -37.1875 L 22.4375 -24.3125 C 22.4375 -19.613281 22.488281 -16.203125 22.59375 -14.078125 C 22.707031 -11.953125 23.28125 -10.375 24.3125 -9.34375 C 24.96875 -8.757812 25.515625 -8.394531 25.953125 -8.25 C 26.398438 -8.101562 26.734375 -7.921875 26.953125 -7.703125 C 27.171875 -7.484375 27.28125 -6.96875 27.28125 -6.15625 C 27.28125 -4.757812 26.488281 -3.273438 24.90625 -1.703125 C 23.332031 -0.128906 20.566406 0.65625 16.609375 0.65625 C 11.992188 0.65625 8.859375 -1.007812 7.203125 -4.34375 C 5.554688 -7.675781 4.734375 -12.019531 4.734375 -17.375 L 4.84375 -33.328125 C 4.84375 -35.304688 4.53125 -36.679688 3.90625 -37.453125 C 3.28125 -38.222656 2.65625 -38.828125 2.03125 -39.265625 C 1.40625 -39.710938 1.09375 -40.410156 1.09375 -41.359375 Z M 1.09375 -41.359375 "/></g></g></g><g fill="#fb5315" fill-opacity="1"><g transform="translate(164.32945, 211.87645)"><g><path d="M 2.203125 -10.5625 C 2.203125 -12.03125 2.625 -13.203125 3.46875 -14.078125 C 4.3125 -14.960938 5.539062 -15.40625 7.15625 -15.40625 C 8.539062 -15.40625 9.671875 -14.890625 10.546875 -13.859375 C 11.429688 -12.828125 12.347656 -11.648438 13.296875 -10.328125 C 14.253906 -9.015625 15.46875 -7.84375 16.9375 -6.8125 C 18.40625 -5.789062 20.382812 -5.28125 22.875 -5.28125 C 24.78125 -5.28125 26.285156 -5.476562 27.390625 -5.875 C 28.492188 -6.28125 29.046875 -7.21875 29.046875 -8.6875 C 29.046875 -9.863281 28.398438 -10.816406 27.109375 -11.546875 C 25.828125 -12.285156 24.195312 -12.960938 22.21875 -13.578125 C 20.238281 -14.203125 18.128906 -14.898438 15.890625 -15.671875 C 13.660156 -16.441406 11.550781 -17.410156 9.5625 -18.578125 C 7.582031 -19.753906 5.953125 -21.273438 4.671875 -23.140625 C 3.390625 -25.015625 2.75 -27.382812 2.75 -30.25 C 2.75 -33.476562 3.484375 -36.0625 4.953125 -38 C 6.421875 -39.945312 8.253906 -41.394531 10.453125 -42.34375 C 12.648438 -43.300781 14.828125 -43.925781 16.984375 -44.21875 C 19.148438 -44.507812 20.929688 -44.65625 22.328125 -44.65625 C 26.066406 -44.65625 29.550781 -44.210938 32.78125 -43.328125 C 36.007812 -42.453125 38.613281 -41.148438 40.59375 -39.421875 C 42.570312 -37.703125 43.5625 -35.597656 43.5625 -33.109375 C 43.5625 -31.859375 43.101562 -30.789062 42.1875 -29.90625 C 41.269531 -29.03125 40.1875 -28.59375 38.9375 -28.59375 C 37.03125 -28.59375 35.488281 -29.125 34.3125 -30.1875 C 33.144531 -31.257812 32.082031 -32.472656 31.125 -33.828125 C 30.175781 -35.179688 29.078125 -36.390625 27.828125 -37.453125 C 26.578125 -38.515625 24.960938 -39.046875 22.984375 -39.046875 C 21.003906 -39.046875 19.703125 -38.585938 19.078125 -37.671875 C 18.460938 -36.753906 18.15625 -35.820312 18.15625 -34.875 C 18.15625 -33.476562 18.773438 -32.410156 20.015625 -31.671875 C 21.265625 -30.941406 22.878906 -30.335938 24.859375 -29.859375 C 26.835938 -29.390625 28.925781 -28.859375 31.125 -28.265625 C 33.332031 -27.679688 35.425781 -26.894531 37.40625 -25.90625 C 39.382812 -24.914062 40.992188 -23.519531 42.234375 -21.71875 C 43.484375 -19.925781 44.109375 -17.5625 44.109375 -14.625 C 44.109375 -10.882812 43.023438 -7.894531 40.859375 -5.65625 C 38.703125 -3.425781 35.9375 -1.816406 32.5625 -0.828125 C 29.1875 0.160156 25.628906 0.65625 21.890625 0.65625 C 20.347656 0.65625 18.476562 0.472656 16.28125 0.109375 C 14.082031 -0.253906 11.898438 -0.859375 9.734375 -1.703125 C 7.566406 -2.546875 5.769531 -3.679688 4.34375 -5.109375 C 2.914062 -6.546875 2.203125 -8.363281 2.203125 -10.5625 Z M 2.203125 -10.5625 "/></g></g></g><g fill="#fb5315" fill-opacity="1"><g transform="translate(211.51615, 211.87645)"><g><path d="M 2.203125 -10.5625 C 2.203125 -12.03125 2.625 -13.203125 3.46875 -14.078125 C 4.3125 -14.960938 5.539062 -15.40625 7.15625 -15.40625 C 8.539062 -15.40625 9.671875 -14.890625 10.546875 -13.859375 C 11.429688 -12.828125 12.347656 -11.648438 13.296875 -10.328125 C 14.253906 -9.015625 15.46875 -7.84375 16.9375 -6.8125 C 18.40625 -5.789062 20.382812 -5.28125 22.875 -5.28125 C 24.78125 -5.28125 26.285156 -5.476562 27.390625 -5.875 C 28.492188 -6.28125 29.046875 -7.21875 29.046875 -8.6875 C 29.046875 -9.863281 28.398438 -10.816406 27.109375 -11.546875 C 25.828125 -12.285156 24.195312 -12.960938 22.21875 -13.578125 C 20.238281 -14.203125 18.128906 -14.898438 15.890625 -15.671875 C 13.660156 -16.441406 11.550781 -17.410156 9.5625 -18.578125 C 7.582031 -19.753906 5.953125 -21.273438 4.671875 -23.140625 C 3.390625 -25.015625 2.75 -27.382812 2.75 -30.25 C 2.75 -33.476562 3.484375 -36.0625 4.953125 -38 C 6.421875 -39.945312 8.253906 -41.394531 10.453125 -42.34375 C 12.648438 -43.300781 14.828125 -43.925781 16.984375 -44.21875 C 19.148438 -44.507812 20.929688 -44.65625 22.328125 -44.65625 C 26.066406 -44.65625 29.550781 -44.210938 32.78125 -43.328125 C 36.007812 -42.453125 38.613281 -41.148438 40.59375 -39.421875 C 42.570312 -37.703125 43.5625 -35.597656 43.5625 -33.109375 C 43.5625 -31.859375 43.101562 -30.789062 42.1875 -29.90625 C 41.269531 -29.03125 40.1875 -28.59375 38.9375 -28.59375 C 37.03125 -28.59375 35.488281 -29.125 34.3125 -30.1875 C 33.144531 -31.257812 32.082031 -32.472656 31.125 -33.828125 C 30.175781 -35.179688 29.078125 -36.390625 27.828125 -37.453125 C 26.578125 -38.515625 24.960938 -39.046875 22.984375 -39.046875 C 21.003906 -39.046875 19.703125 -38.585938 19.078125 -37.671875 C 18.460938 -36.753906 18.15625 -35.820312 18.15625 -34.875 C 18.15625 -33.476562 18.773438 -32.410156 20.015625 -31.671875 C 21.265625 -30.941406 22.878906 -30.335938 24.859375 -29.859375 C 26.835938 -29.390625 28.925781 -28.859375 31.125 -28.265625 C 33.332031 -27.679688 35.425781 -26.894531 37.40625 -25.90625 C 39.382812 -24.914062 40.992188 -23.519531 42.234375 -21.71875 C 43.484375 -19.925781 44.109375 -17.5625 44.109375 -14.625 C 44.109375 -10.882812 43.023438 -7.894531 40.859375 -5.65625 C 38.703125 -3.425781 35.9375 -1.816406 32.5625 -0.828125 C 29.1875 0.160156 25.628906 0.65625 21.890625 0.65625 C 20.347656 0.65625 18.476562 0.472656 16.28125 0.109375 C 14.082031 -0.253906 11.898438 -0.859375 9.734375 -1.703125 C 7.566406 -2.546875 5.769531 -3.679688 4.34375 -5.109375 C 2.914062 -6.546875 2.203125 -8.363281 2.203125 -10.5625 Z M 2.203125 -10.5625 "/></g></g></g><g fill="#fb5315" fill-opacity="1"><g transform="translate(258.70285, 211.87645)"><g><path d="M 13.96875 0 C 12.863281 0 11.5625 0.109375 10.0625 0.328125 C 8.5625 0.546875 7.148438 0.65625 5.828125 0.65625 C 4.578125 0.65625 3.53125 0.472656 2.6875 0.109375 C 1.851562 -0.253906 1.4375 -0.988281 1.4375 -2.09375 C 1.4375 -2.894531 1.617188 -3.5 1.984375 -3.90625 C 2.347656 -4.3125 2.785156 -4.820312 3.296875 -5.4375 C 3.804688 -6.0625 4.242188 -7.035156 4.609375 -8.359375 C 4.984375 -9.679688 5.171875 -11.625 5.171875 -14.1875 C 5.171875 -17.5625 5.1875 -20 5.21875 -21.5 C 5.257812 -23.007812 5.28125 -24.109375 5.28125 -24.796875 C 5.28125 -25.492188 5.28125 -26.285156 5.28125 -27.171875 C 5.28125 -29.148438 4.96875 -30.523438 4.34375 -31.296875 C 3.71875 -32.066406 3.09375 -32.671875 2.46875 -33.109375 C 1.851562 -33.546875 1.546875 -34.242188 1.546875 -35.203125 C 1.546875 -36.296875 1.910156 -37.046875 2.640625 -37.453125 C 3.367188 -37.859375 4.410156 -38.207031 5.765625 -38.5 C 7.128906 -38.789062 8.765625 -39.269531 10.671875 -39.9375 C 13.015625 -40.8125 14.625 -41.597656 15.5 -42.296875 C 16.382812 -42.992188 17.046875 -43.5625 17.484375 -44 C 17.929688 -44.4375 18.628906 -44.65625 19.578125 -44.65625 C 20.898438 -44.65625 21.78125 -44.066406 22.21875 -42.890625 C 22.65625 -41.722656 22.875 -40.332031 22.875 -38.71875 L 22.875 -14.1875 C 22.875 -11.625 23.054688 -9.679688 23.421875 -8.359375 C 23.796875 -7.035156 24.238281 -6.0625 24.75 -5.4375 C 25.257812 -4.820312 25.695312 -4.3125 26.0625 -3.90625 C 26.4375 -3.5 26.625 -2.894531 26.625 -2.09375 C 26.625 -0.988281 26.203125 -0.253906 25.359375 0.109375 C 24.515625 0.472656 23.46875 0.65625 22.21875 0.65625 C 20.820312 0.65625 19.375 0.546875 17.875 0.328125 C 16.375 0.109375 15.070312 0 13.96875 0 Z M 1.4375 -47.734375 C 0.695312 -49.941406 1.078125 -52.328125 2.578125 -54.890625 C 4.085938 -57.453125 6.378906 -59.539062 9.453125 -61.15625 C 12.023438 -62.476562 14.375 -63.140625 16.5 -63.140625 C 19.726562 -63.140625 21.816406 -61.820312 22.765625 -59.1875 C 23.578125 -56.90625 23.226562 -54.519531 21.71875 -52.03125 C 20.21875 -49.539062 17.925781 -47.453125 14.84375 -45.765625 C 12.207031 -44.441406 9.828125 -43.78125 7.703125 -43.78125 C 4.546875 -43.78125 2.457031 -45.097656 1.4375 -47.734375 Z M 1.4375 -47.734375 "/></g></g></g><g fill="#fb5315" fill-opacity="1"><g transform="translate(270.760359, 133.539044)"><g><path d="M 5.125 -7.25 C 5.851562 -7.175781 6.445312 -7 6.90625 -6.71875 C 7.363281 -6.4375 7.703125 -6.082031 7.921875 -5.65625 C 8.148438 -5.226562 8.265625 -4.757812 8.265625 -4.25 L 8.25 -4.140625 L 6.296875 -4.34375 L 6.28125 -4.453125 C 6.207031 -5.273438 5.765625 -5.726562 4.953125 -5.8125 C 4.492188 -5.863281 4.082031 -5.703125 3.71875 -5.328125 C 3.351562 -4.960938 3.128906 -4.375 3.046875 -3.5625 C 2.972656 -2.925781 3 -2.410156 3.125 -2.015625 C 3.25 -1.628906 3.425781 -1.34375 3.65625 -1.15625 C 3.894531 -0.976562 4.15625 -0.875 4.4375 -0.84375 C 4.832031 -0.800781 5.160156 -0.878906 5.421875 -1.078125 C 5.679688 -1.273438 5.875 -1.582031 6 -2 L 6.03125 -2.09375 L 8 -1.890625 L 7.96875 -1.78125 C 7.851562 -1.175781 7.617188 -0.6875 7.265625 -0.3125 C 6.921875 0.0507812 6.484375 0.3125 5.953125 0.46875 C 5.429688 0.625 4.859375 0.664062 4.234375 0.59375 C 3.554688 0.53125 2.953125 0.328125 2.421875 -0.015625 C 1.898438 -0.367188 1.503906 -0.847656 1.234375 -1.453125 C 0.972656 -2.066406 0.890625 -2.800781 0.984375 -3.65625 C 1.078125 -4.53125 1.320312 -5.242188 1.71875 -5.796875 C 2.113281 -6.359375 2.613281 -6.757812 3.21875 -7 C 3.820312 -7.238281 4.457031 -7.320312 5.125 -7.25 Z M 5.125 -7.25 "/></g></g></g><g fill="#fb5315" fill-opacity="1"><g transform="translate(281.054755, 135.283652)"><g><path d="M 6.59375 2.078125 L 5.71875 3.5 L 0.75 0.453125 L 4.71875 -6.015625 L 6.40625 -4.96875 L 3.3125 0.078125 Z M 6.59375 2.078125 "/></g></g></g><g fill="#fb5315" fill-opacity="1"><g transform="translate(288.804274, 140.438428)"><g><path d="M 8.953125 -0.359375 C 9.367188 0.316406 9.597656 0.984375 9.640625 1.640625 C 9.679688 2.296875 9.535156 2.914062 9.203125 3.5 C 8.867188 4.082031 8.359375 4.59375 7.671875 5.03125 C 6.984375 5.46875 6.304688 5.707031 5.640625 5.75 C 4.972656 5.800781 4.347656 5.664062 3.765625 5.34375 C 3.191406 5.03125 2.695312 4.535156 2.28125 3.859375 C 1.851562 3.191406 1.613281 2.53125 1.5625 1.875 C 1.519531 1.21875 1.660156 0.59375 1.984375 0 C 2.316406 -0.582031 2.828125 -1.09375 3.515625 -1.53125 C 4.203125 -1.96875 4.878906 -2.207031 5.546875 -2.25 C 6.222656 -2.289062 6.851562 -2.148438 7.4375 -1.828125 C 8.019531 -1.515625 8.523438 -1.023438 8.953125 -0.359375 Z M 3.5 3.09375 C 3.789062 3.570312 4.207031 3.835938 4.75 3.890625 C 5.300781 3.941406 5.914062 3.753906 6.59375 3.328125 C 7.269531 2.898438 7.695312 2.425781 7.875 1.90625 C 8.0625 1.382812 8.007812 0.882812 7.71875 0.40625 C 7.40625 -0.0703125 6.976562 -0.332031 6.4375 -0.375 C 5.894531 -0.425781 5.285156 -0.238281 4.609375 0.1875 C 3.929688 0.613281 3.5 1.082031 3.3125 1.59375 C 3.125 2.113281 3.1875 2.613281 3.5 3.09375 Z M 3.5 3.09375 "/></g></g></g><g fill="#fb5315" fill-opacity="1"><g transform="translate(294.17954, 149.974443)"><g><path d="M 0.578125 8.125 L 0.390625 5.546875 L 5.203125 2.4375 C 4.816406 2.5 4.460938 2.539062 4.140625 2.5625 C 3.816406 2.59375 3.546875 2.617188 3.328125 2.640625 L 0.203125 2.859375 L 0.0625 0.875 L 7.640625 0.328125 L 7.8125 2.78125 L 2.8125 6.03125 C 3.1875 5.988281 3.550781 5.945312 3.90625 5.90625 C 4.257812 5.875 4.546875 5.847656 4.765625 5.828125 L 8.015625 5.59375 L 8.15625 7.578125 Z M 0.578125 8.125 "/></g></g></g><g fill="#fb5315" fill-opacity="1"><g transform="translate(294.235336, 161.025469)"><g><path d="M -1.109375 6.796875 L -2.546875 6.203125 L -0.328125 0.8125 L 6.703125 3.6875 L 4.53125 8.96875 L 3.09375 8.390625 L 4.515625 4.9375 L 3.15625 4.375 L 1.8125 7.640625 L 0.390625 7.0625 L 1.734375 3.796875 L 0.359375 3.234375 Z M -1.109375 6.796875 "/></g></g></g></svg>